<svg width="132" height="132" viewBox="0 0 132 132" fill="none" xmlns="http://www.w3.org/2000/svg">
<circle cx="66" cy="66" r="63" fill="#C4C4C4" stroke="#333333" stroke-width="6"/>
<circle cx="66" cy="66" r="50" fill="#F2F2F2"/>
<path d="M66 36.625C54.9531 36.625 46 45.5781 46 56.625C46 63.8516 49.8594 70.3984 56.0078 73.9531L58.8125 75.5781V84.75H73.1875V75.5781L75.9922 73.9531C82.1406 70.3984 86 63.8516 86 56.625C86 45.5781 77.0469 36.625 66 36.625Z" fill="#FFAB07"/>
<path d="M75.375 95.375H56.625C56.2812 95.375 56 95.6562 56 96V98.5C56 99.8828 57.1172 101 58.5 101H73.5C74.8828 101 76 99.8828 76 98.5V96C76 95.6562 75.7188 95.375 75.375 95.375ZM66 31C51.8516 31 40.375 42.4766 40.375 56.625C40.375 66.1094 45.5312 74.3906 53.1875 78.8203V87.875C53.1875 89.2578 54.3047 90.375 55.6875 90.375H76.3125C77.6953 90.375 78.8125 89.2578 78.8125 87.875V78.8203C86.4688 74.3906 91.625 66.1094 91.625 56.625C91.625 42.4766 80.1484 31 66 31ZM75.9922 73.9531L73.1875 75.5781V84.75H58.8125V75.5781L56.0078 73.9531C49.8594 70.3984 46 63.8516 46 56.625C46 45.5781 54.9531 36.625 66 36.625C77.0469 36.625 86 45.5781 86 56.625C86 63.8516 82.1406 70.3984 75.9922 73.9531Z" fill="black"/>
</svg>
