<svg width="359" height="96" viewBox="0 0 359 96" fill="none" xmlns="http://www.w3.org/2000/svg">
<path d="M2 10C2 5.58172 5.58172 2 10 2H101V94H10C5.58172 94 2 90.4183 2 86V10Z" fill="#EB5757"/>
<path d="M62.3409 34.8182V61H56.4091L46.9489 47.2443H46.7955V61H39.6875V34.8182H45.7216L55.0284 48.5227H55.233V34.8182H62.3409Z" fill="#F2F2F2"/>
<path d="M2 10C2 5.58172 5.58172 2 10 2H101V94H10C5.58172 94 2 90.4183 2 86V10Z" stroke="black" stroke-width="4"/>
<path d="M261 2H349C353.418 2 357 5.58172 357 10V86C357 90.4183 353.418 94 349 94H261V2Z" fill="#2D9CDB"/>
<path d="M312.801 43C312.733 42.1477 312.413 41.483 311.842 41.0057C311.28 40.5284 310.423 40.2898 309.273 40.2898C308.54 40.2898 307.939 40.3793 307.47 40.5582C307.01 40.7287 306.669 40.9631 306.447 41.2614C306.226 41.5597 306.111 41.9006 306.102 42.2841C306.085 42.5994 306.141 42.8849 306.268 43.1406C306.405 43.3878 306.618 43.6136 306.908 43.8182C307.197 44.0142 307.568 44.1932 308.02 44.3551C308.472 44.517 309.009 44.6619 309.631 44.7898L311.778 45.25C313.227 45.5568 314.467 45.9616 315.499 46.4645C316.53 46.9673 317.374 47.5597 318.03 48.2415C318.686 48.9148 319.168 49.6733 319.474 50.517C319.79 51.3608 319.952 52.2812 319.96 53.2784C319.952 55 319.521 56.4574 318.669 57.6506C317.817 58.8438 316.598 59.7514 315.013 60.3736C313.436 60.9957 311.54 61.3068 309.324 61.3068C307.048 61.3068 305.063 60.9702 303.366 60.2969C301.679 59.6236 300.366 58.5881 299.429 57.1903C298.5 55.7841 298.031 53.9858 298.023 51.7955H304.773C304.815 52.5966 305.016 53.2699 305.374 53.8153C305.732 54.3608 306.234 54.7741 306.882 55.0554C307.538 55.3366 308.318 55.4773 309.222 55.4773C309.98 55.4773 310.615 55.3835 311.126 55.196C311.638 55.0085 312.026 54.7486 312.29 54.4162C312.554 54.0838 312.69 53.7045 312.699 53.2784C312.69 52.8778 312.558 52.5284 312.303 52.2301C312.055 51.9233 311.646 51.6506 311.075 51.4119C310.504 51.1648 309.733 50.9347 308.761 50.7216L306.153 50.1591C303.835 49.6562 302.007 48.8168 300.669 47.6406C299.339 46.456 298.679 44.8409 298.688 42.7955C298.679 41.1335 299.122 39.6804 300.017 38.4361C300.92 37.1832 302.169 36.2074 303.763 35.5085C305.365 34.8097 307.202 34.4602 309.273 34.4602C311.386 34.4602 313.214 34.8139 314.757 35.5213C316.3 36.2287 317.489 37.2259 318.324 38.5128C319.168 39.7912 319.594 41.2869 319.602 43H312.801Z" fill="#F2F2F2"/>
<path d="M261 2H349C353.418 2 357 5.58172 357 10V86C357 90.4183 353.418 94 349 94H261V2Z" stroke="black" stroke-width="4"/>
<rect x="101" y="2" width="160" height="92" fill="#34374E" stroke="black" stroke-width="4"/>
</svg>
